<?xml version="1.0"?>
<svg xmlns="http://www.w3.org/2000/svg" id="Capa_1" enable-background="new 0 0 512 512" height="512px" viewBox="0 0 512 512" width="512px"><g><g><path d="m376.637 322.493c-27.192 0-49.315 22.123-49.315 49.315s22.123 49.314 49.315 49.314 49.314-22.123 49.314-49.314c0-27.193-22.122-49.315-49.314-49.315zm0 83.629c-18.922 0-34.315-15.394-34.315-34.314 0-18.921 15.394-34.315 34.315-34.315s34.314 15.394 34.314 34.315-15.393 34.314-34.314 34.314z" data-original="#000000" class="active-path" data-old_color="#000000" fill="#B0E0E6"/><path d="m376.637 346.875c-13.748 0-24.933 11.185-24.933 24.933s11.185 24.932 24.933 24.932c13.747 0 24.932-11.185 24.932-24.932-.001-13.748-11.185-24.933-24.932-24.933zm0 34.865c-5.477 0-9.933-4.456-9.933-9.932 0-5.477 4.456-9.933 9.933-9.933s9.932 4.456 9.932 9.933c-.001 5.476-4.456 9.932-9.932 9.932z" data-original="#000000" class="active-path" data-old_color="#000000" fill="#B0E0E6"/><path d="m321.2 371.808c0-30.564 24.87-55.43 55.439-55.43 3.293 0 6.579.288 9.767.854 4.08.726 7.973-1.993 8.697-6.071.726-4.078-1.992-7.972-6.07-8.697-4.053-.721-8.223-1.086-12.394-1.086-23.914 0-45.068 11.987-57.807 30.256h-134.365c-12.739-18.269-33.893-30.256-57.807-30.256-23.91 0-45.061 11.987-57.798 30.256h-53.862v-97.487l31.24-105.336c4.005-13.502 16.642-22.933 30.729-22.933h24.2c4.143 0 7.5-3.358 7.5-7.5s-3.357-7.5-7.5-7.5h-24.2c-20.68 0-39.23 13.845-45.11 33.668l-31.549 106.38c-.205.692-.31 1.41-.31 2.132v141.66c0 4.142 3.357 7.5 7.5 7.5h56.3c2.057 0 4.022-.844 5.438-2.336 1.416-1.491 2.158-3.499 2.052-5.552-.04-.77-.06-1.594-.06-2.522 0-30.564 24.865-55.43 55.43-55.43 30.569 0 55.439 24.866 55.439 55.43 0 .928-.02 1.752-.06 2.522-.106 2.054.636 4.061 2.052 5.552 1.416 1.492 3.382 2.336 5.438 2.336h124.241c2.057 0 4.022-.844 5.438-2.336 1.416-1.491 2.158-3.499 2.052-5.552-.04-.77-.06-1.594-.06-2.522zm-306.2-4.59v-20.584h45.896c-2.482 6.463-4.052 13.374-4.518 20.584zm181.952 0c-.466-7.21-2.036-14.122-4.519-20.584h118.433c-2.483 6.463-4.053 13.374-4.519 20.584z" data-original="#000000" class="active-path" data-old_color="#000000" fill="#B0E0E6"/><path d="m478.851 246.436-86.431-19.751-34.586-103.653c-6.423-19.233-24.359-32.155-44.634-32.155h-182.03c-4.143 0-7.5 3.358-7.5 7.5s3.357 7.5 7.5 7.5h182.03c9.945 0 19.045 4.58 25.005 12.026h-43.987c-16.409 0-29.759 13.35-29.759 29.758v63.133c0 16.409 13.35 29.759 29.759 29.759h91.556l89.735 20.506c12.653 2.89 21.49 13.976 21.49 26.958v43.616h-62.489c-4.053-5.813-9.008-11.067-14.803-15.548-3.274-2.533-7.986-1.932-10.521 1.344-2.534 3.277-1.933 7.987 1.345 10.521 13.688 10.586 21.538 26.571 21.538 43.857 0 .915-.02 1.74-.061 2.522-.106 2.054.636 4.061 2.052 5.552 1.416 1.492 3.382 2.336 5.438 2.336h65c4.143 0 7.5-3.358 7.5-7.5v-86.7c.002-20.024-13.63-37.123-33.147-41.581zm-199.391-35.641v-63.133c0-8.138 6.621-14.758 14.759-14.758h51.096l30.915 92.65h-82.01c-8.139-.001-14.76-6.621-14.76-14.759zm167.465 156.423c-.456-7.145-1.993-14.063-4.48-20.584h54.555v20.584z" data-original="#000000" class="active-path" data-old_color="#000000" fill="#B0E0E6"/><path d="m486.917 303.854v-15.962c0-12.662-10.301-22.963-22.963-22.963s-22.963 10.301-22.963 22.963v15.962c0 12.662 10.301 22.963 22.963 22.963s22.963-10.301 22.963-22.963zm-30.926 0v-15.962c0-4.391 3.572-7.963 7.963-7.963s7.963 3.572 7.963 7.963v15.962c0 4.391-3.572 7.963-7.963 7.963s-7.963-3.572-7.963-7.963z" data-original="#000000" class="active-path" data-old_color="#000000" fill="#B0E0E6"/><path d="m87.89 117.904c-13.746 0-25.682 9.312-29.026 22.65l-15.709 62.819c-2.253 9.002-.27 18.36 5.44 25.675 5.709 7.312 14.301 11.506 23.575 11.506h25.16c4.143 0 7.5-3.358 7.5-7.5v-107.65c0-4.142-3.357-7.5-7.5-7.5zm1.94 107.649h-17.66c-4.622 0-8.905-2.091-11.751-5.736-2.848-3.648-3.837-8.315-2.713-12.805l15.708-62.815c1.668-6.65 7.62-11.294 14.476-11.294h1.94z" data-original="#000000" class="active-path" data-old_color="#000000" fill="#B0E0E6"/><path d="m148.519 240.553h72.253c16.409 0 29.759-13.35 29.759-29.759v-63.133c0-16.409-13.35-29.758-29.759-29.758h-72.253c-16.409 0-29.759 13.35-29.759 29.758v63.133c0 16.41 13.349 29.759 29.759 29.759zm-14.759-92.891c0-8.138 6.621-14.758 14.759-14.758h72.253c8.138 0 14.759 6.621 14.759 14.758v63.133c0 8.138-6.621 14.759-14.759 14.759h-72.253c-8.138 0-14.759-6.621-14.759-14.759z" data-original="#000000" class="active-path" data-old_color="#000000" fill="#B0E0E6"/><path d="m311.864 273.474c4.143 0 7.5-3.358 7.5-7.5s-3.357-7.5-7.5-7.5h-26.937c-4.143 0-7.5 3.358-7.5 7.5s3.357 7.5 7.5 7.5z" data-original="#000000" class="active-path" data-old_color="#000000" fill="#B0E0E6"/><path d="m134.239 258.474c-4.143 0-7.5 3.358-7.5 7.5s3.357 7.5 7.5 7.5h26.937c4.143 0 7.5-3.358 7.5-7.5s-3.357-7.5-7.5-7.5z" data-original="#000000" class="active-path" data-old_color="#000000" fill="#B0E0E6"/><path d="m126.663 322.493c-27.192 0-49.315 22.123-49.315 49.315s22.123 49.314 49.315 49.314 49.314-22.123 49.314-49.314c.001-27.193-22.122-49.315-49.314-49.315zm0 83.629c-18.922 0-34.315-15.394-34.315-34.314 0-18.921 15.394-34.315 34.315-34.315s34.314 15.394 34.314 34.315c.001 18.921-15.393 34.314-34.314 34.314z" data-original="#000000" class="active-path" data-old_color="#000000" fill="#B0E0E6"/><path d="m126.663 346.875c-13.748 0-24.933 11.185-24.933 24.933s11.185 24.932 24.933 24.932c13.747 0 24.932-11.185 24.932-24.932 0-13.748-11.185-24.933-24.932-24.933zm0 34.865c-5.477 0-9.933-4.456-9.933-9.932 0-5.477 4.456-9.933 9.933-9.933s9.932 4.456 9.932 9.933c0 5.476-4.455 9.932-9.932 9.932z" data-original="#000000" class="active-path" data-old_color="#000000" fill="#B0E0E6"/></g></g> </svg>
