<?xml version="1.0" encoding="utf-8"?>
<!-- Svg Vector Icons : http://www.onlinewebfonts.com/icon -->
<!DOCTYPE svg PUBLIC "-//W3C//DTD SVG 1.1//EN" "http://www.w3.org/Graphics/SVG/1.1/DTD/svg11.dtd">
<svg version="1.1" xmlns="http://www.w3.org/2000/svg" xmlns:xlink="http://www.w3.org/1999/xlink" x="0px" y="0px" viewBox="0 0 1000 1000" enable-background="new 0 0 1000 1000" xml:space="preserve">
<metadata> Svg Vector Icons : http://www.onlinewebfonts.com/icon </metadata>
<g><path d="M711.8,315c-17.5-12.9-42.2-9.1-55,8.4L442.3,615.1L342.1,490.9c-13.6-16.9-38.4-19.6-55.3-6c-16.9,13.7-19.6,38.4-5.9,55.3l132.2,164c7.5,9.3,18.8,14.7,30.7,14.7c0.3,0,0.6,0,0.9,0c12.2-0.3,23.6-6.2,30.8-16L720.2,370C733.1,352.5,729.3,327.9,711.8,315L711.8,315z M500,10C229.8,10,10,229.8,10,500c0,270.2,219.8,490,490,490c270.2,0,490-219.8,490-490C990,229.8,770.2,10,500,10z M500,894.7c-217.6,0-394.7-177.1-394.7-394.7c0-217.6,177.1-394.7,394.7-394.7c217.6,0,394.7,177.1,394.7,394.7C894.7,717.6,717.6,894.7,500,894.7L500,894.7z"/></g>
</svg>