<?xml version="1.0"?>
<svg xmlns="http://www.w3.org/2000/svg" xmlns:xlink="http://www.w3.org/1999/xlink" version="1.1" id="Capa_1" x="0px" y="0px" viewBox="0 0 512.001 512.001" style="enable-background:new 0 0 512.001 512.001;" xml:space="preserve" width="512px" height="512px" class=""><g><g>
	<g>
		<path d="M504.501,452.912h-8.532V219.929c0-4.143-3.358-7.5-7.5-7.5h-32.581V107.702c0-4.142-3.358-7.5-7.5-7.5h-32.064    c-4.142,0-7.5,3.358-7.5,7.5v104.726h-17.065V107.702c0-4.142-3.358-7.5-7.5-7.5h-32.065c-4.142,0-7.5,3.358-7.5,7.5v104.726    H327.63v-40.597c0-4.142-3.358-7.5-7.5-7.5H215.92c-4.142,0-7.5,3.358-7.5,7.5v40.597h-24.564c-4.142,0-7.5,3.357-7.5,7.5v66.158    l-25.081,5.7v-31.778c0-4.142-3.358-7.5-7.5-7.5h-0.799l-7.44-193.419h0.222c4.142,0,7.5-3.358,7.5-7.5c0-4.143-3.358-7.5-7.5-7.5    H71.63c-4.142,0-7.5,3.357-7.5,7.5c0,4.142,3.358,7.5,7.5,7.5h0.222l-1.55,40.305c-0.159,4.139,3.067,7.624,7.207,7.783    c0.098,0.004,0.196,0.006,0.293,0.006c4.009,0,7.333-3.171,7.489-7.212l0.339-8.817h36.129l6.206,161.354H79.424l4.634-120.472    c0.159-4.139-3.067-7.624-7.207-7.783c-4.162-0.166-7.624,3.067-7.783,7.206l-4.656,121.049h-0.799c-4.142,0-7.5,3.358-7.5,7.5    v53.406L5.839,324.841c-4.039,0.918-6.569,4.937-5.651,8.976c0.791,3.479,3.883,5.84,7.307,5.84c0.55,0,1.109-0.062,1.669-0.188    l6.87-1.562v115.006H7.501c-4.142,0-7.5,3.358-7.5,7.5c0,4.143,3.358,7.5,7.5,7.5h497c4.142,0,7.5-3.357,7.5-7.5    C512.001,456.27,508.643,452.912,504.501,452.912z M86.207,76.154l0.656-17.064h33.662l0.656,17.064H86.207z M71.113,267.509    h65.162v27.688l-65.162,14.809V267.509z M136.275,452.911H71.113v-17.064h65.162V452.911z M136.275,420.847H71.113v-17.064h65.162    V420.847z M136.275,388.783H71.113v-17.064h65.162V388.783z M176.356,452.912h-25.081v-81.193h0.516c4.142,0,7.5-3.358,7.5-7.5    c0-4.142-3.358-7.5-7.5-7.5H55.597c-4.142,0-7.5,3.358-7.5,7.5c0,4.142,3.358,7.5,7.5,7.5h0.516v81.193h-25.08V334.497    l145.323-33.028V452.912z M423.824,115.202h17.064v17.064h-17.064V115.202z M423.823,147.267h17.064v65.162h-17.064V147.267z     M359.694,115.202h17.065v17.064h-17.065V115.202z M359.694,147.267h17.065v65.162h-17.065V147.267z M191.356,227.429h80.677    c4.142,0,7.5-3.358,7.5-7.5c0-4.143-3.358-7.5-7.5-7.5H223.42v-33.097h89.209v33.097h-8.533c-4.142,0-7.5,3.357-7.5,7.5    c0,4.142,3.358,7.5,7.5,7.5h176.872v129.29H191.356V227.429z M440.888,371.719v49.129h-33.097v-49.129H440.888z M392.791,371.719    v49.129h-33.097v-49.129H392.791z M312.63,371.719v49.129h-33.097v-49.129H312.63z M264.533,371.719v49.129h-33.097v-49.129    H264.533z M480.969,452.912H191.356v-81.193h25.081v56.629c0,4.142,3.358,7.5,7.5,7.5h96.193c4.142,0,7.5-3.358,7.5-7.5v-56.629    h17.064v56.629c0,4.142,3.358,7.5,7.5,7.5h96.194c4.142,0,7.5-3.358,7.5-7.5v-56.629h25.081V452.912z" data-original="#000000" class="active-path" data-old_color="#000000" fill="#B0E0E6"/>
	</g>
</g><g>
	<g>
		<path d="M448.388,292.59h-96.194c-4.142,0-7.5,3.357-7.5,7.5v32.064c0,4.142,3.358,7.5,7.5,7.5h96.194c4.142,0,7.5-3.358,7.5-7.5    V300.09C455.888,295.947,452.53,292.59,448.388,292.59z M392.791,324.654h-33.097V307.59h33.097V324.654z M407.791,324.654V307.59    h33.097v17.064H407.791z" data-original="#000000" class="active-path" data-old_color="#000000" fill="#B0E0E6"/>
	</g>
</g><g>
	<g>
		<path d="M320.129,292.59h-96.193c-4.142,0-7.5,3.357-7.5,7.5v32.064c0,4.142,3.358,7.5,7.5,7.5h96.193c4.142,0,7.5-3.358,7.5-7.5    V300.09C327.629,295.947,324.271,292.59,320.129,292.59z M264.533,324.654h-33.097V307.59h33.097V324.654z M279.533,324.654    V307.59h33.097v17.064H279.533z" data-original="#000000" class="active-path" data-old_color="#000000" fill="#B0E0E6"/>
	</g>
</g></g> </svg>
