<?xml version="1.0"?>
<svg xmlns="http://www.w3.org/2000/svg" id="Layer_1" data-name="Layer 1" viewBox="0 0 128 128" width="512" height="512"><title>ACTIVE SEARCH</title><path d="M40.734,31.635a1.245,1.245,0,0,0,.593-.15q.423-.228.851-.438a1.25,1.25,0,1,0-1.1-2.245q-.475.232-.941.484a1.25,1.25,0,0,0,.6,2.35Z"/><path d="M39.936,65.722a18.234,18.234,0,1,0,0-25.787A18.177,18.177,0,0,0,39.936,65.722ZM52.829,37.1A15.727,15.727,0,1,1,41.7,41.7,15.685,15.685,0,0,1,52.829,37.1Z"/><path d="M100.186,91.865,80.9,72.575a1.287,1.287,0,0,0-1.768,0l-2.393,2.393L72.6,70.83A26.741,26.741,0,0,0,45.707,27.051a1.25,1.25,0,1,0,.664,2.41,24.251,24.251,0,1,1-10.682,6.228,1.25,1.25,0,0,0-1.768-1.768A26.739,26.739,0,0,0,70.831,72.6l4.137,4.137-2.393,2.393A1.25,1.25,0,0,0,74.343,80.9l3.276-3.276h0l2.392-2.392L98.419,93.633a3.384,3.384,0,0,1,0,4.786,3.466,3.466,0,0,1-4.786,0L77.857,82.643a1.25,1.25,0,0,0-1.767,1.767l15.776,15.776a5.884,5.884,0,1,0,8.321-8.321Z"/></svg>
